# xmcd
#
# Track frame offsets:
#	150
#	14593
#	31863
#	46841
#	63011
#	83176
#	97396
#	112746
#	127498
#	141723
#	159671
#
# Disc length: 2343 seconds
#
# Revision: 0
# Processed by: cddbd v1.5PL3 Copyright (c) Steve Scherf et al.
# Submitted via: dBpowerAMP V4.0
#
DISCID=9a09250b
DTITLE=Montgomery Gentry - Tattoos and Scars
DYEAR=1900
DGENRE=Country
TTITLE0=Hillbilly Shoes
TTITLE1=Trying To Survive
TTITLE2=Lonely And Gone
TTITLE3=Self-Made Man
TTITLE4=Daddy Won't Sell The Farm
TTITLE5=If A Broken Heart Could Kill
TTITLE6=I've Loved A Lot More Than I've Hurt
TTITLE7=Didn't Your Mother Tell Ya
TTITLE8=Trouble's
TTITLE9=Tattoos And Scars
TTITLE10=All Night Long
EXTD=
EXTT0=
EXTT1=
EXTT2=
EXTT3=
EXTT4=
EXTT5=
EXTT6=
EXTT7=
EXTT8=
EXTT9=
EXTT10=
PLAYORDER=
